<svg width="37" height="32" viewBox="0 0 37 32" fill="white"><path fill="COLOR_1" d="m 0,0 v 32 h 8.1672381 v -9.355469 h 4.7914989 c 7.802754,0 11.77368,-5.650788 11.77368,-11.345703 C 24.732417,5.6491106 20.8074,0 12.913386,0 Z m 8.1672381,7.5488281 h 4.7461479 c 4.928055,-0.045198 4.928055,7.9534009 0,7.9082029 H 8.1672381 Z"/><path fill="COLOR_2" d="M 23.173828 0 C 26.168987 2.3031072 27.920961 5.6614952 28.433594 9.2128906 C 29.159183 10.362444 29.181906 11.885963 28.511719 13.064453 C 28.098967 17.002739 26.191156 20.761973 22.810547 23.197266 L 29.287109 32 L 37 32 L 37 28.941406 L 30.65625 21.017578 C 34.580442 19.797239 37 16.452154 37 10.53125 C 36.81748 3.0284249 31.662 0 25 0 L 23.173828 0 z M 20.34375 24.603516 C 18.404231 25.464995 16.135462 25.970703 13.521484 25.970703 L 12.085938 25.970703 L 12.085938 32 L 20.34375 32 L 20.34375 24.603516 z"/></svg>