<svg width="42" height="32" viewBox="0 0 42 32" fill="white"><path fill="COLOR_1" d="M 0,0 V 7.671875 H 8.6211458 V 32 H 16.922769 V 7.672 l 8.621146,-1.25e-4 V 0 Z"/><path fill="COLOR_2" d="M 29.542969 0 L 29.542969 7.5488281 L 30.056641 7.5488281 C 35.246318 7.5488281 35.246318 14.869141 30.056641 14.869141 L 25.234375 14.869141 L 25.234375 11.671875 L 20.921875 11.671875 L 20.921875 32 L 25.234375 32 L 25.234375 21.830078 L 26.705078 21.830078 L 34.236328 32 L 42 32 L 42 28.931641 L 35.613281 21.017578 C 39.562947 19.797239 41.998047 16.452154 41.998047 10.53125 C 41.814341 3.0284252 36.625168 0 29.919922 0 L 29.542969 0 z"/></svg>